<svg width="22" height="18" viewBox="0 0 22 18" fill="none" xmlns="http://www.w3.org/2000/svg">
<path d="M3.125 9L0.125 3.8L6.725 0H8C8.26667 0.75 8.64167 1.4375 9.125 2.0625C9.60833 2.6875 10.2333 3 11 3C11.7833 3 12.4167 2.6875 12.9 2.0625C13.3833 1.4375 13.75 0.75 14 0H15.275L21.85 3.825L18.875 9L17 7.975V13.375L15.5 14.65V5.425L18.325 6.975L19.8 4.375L15.1 1.625C14.6667 2.50833 14.0833 3.20833 13.35 3.725C12.6167 4.24167 11.8333 4.5 11 4.5C10.1833 4.5 9.40417 4.24167 8.6625 3.725C7.92083 3.20833 7.33333 2.50833 6.9 1.625L2.175 4.375L3.7 6.975L6.5 5.425V11.05C6.25 11.0833 5.99583 11.1375 5.7375 11.2125C5.47917 11.2875 5.23333 11.3833 5 11.5V7.975L3.125 9ZM3.675 16.275L2.7 15.125L4.675 13.45C5.05833 13.1333 5.48333 12.8917 5.95 12.725C6.41667 12.5583 6.89167 12.475 7.375 12.475C7.85833 12.475 8.32917 12.5583 8.7875 12.725C9.24583 12.8917 9.66667 13.1333 10.05 13.45L12.95 15.925C13.1833 16.125 13.4458 16.2708 13.7375 16.3625C14.0292 16.4542 14.3333 16.5 14.65 16.5C14.95 16.5 15.25 16.4542 15.55 16.3625C15.85 16.2708 16.1167 16.125 16.35 15.925L18.325 14.2L19.3 15.375L17.325 17.05C16.9417 17.3667 16.5208 17.6042 16.0625 17.7625C15.6042 17.9208 15.1333 18 14.65 18C14.1667 18 13.6917 17.9208 13.225 17.7625C12.7583 17.6042 12.3333 17.3667 11.95 17.05L9.075 14.575C8.84167 14.375 8.575 14.2292 8.275 14.1375C7.975 14.0458 7.675 14 7.375 14C7.05833 14 6.75417 14.0458 6.4625 14.1375C6.17083 14.2292 5.90833 14.375 5.675 14.575L3.675 16.275Z" fill="#2D2D2D" fill-opacity="0.8"/>
</svg>
