<svg width="71" height="71" viewBox="0 0 71 71" fill="none" xmlns="http://www.w3.org/2000/svg">
<rect width="71" height="71" rx="35.5" fill="#155EEF"/>
<g clip-path="url(#clip0_1485_1577)">
<path d="M43.2173 33.9552V21.6074H27.7826V27.7813H21.6086V49.39H33.9565V43.2161H37.0434V49.39H49.3913V33.9552H43.2173ZM27.7826 46.3031H24.6956V43.2161H27.7826V46.3031ZM27.7826 40.1292H24.6956V37.0422H27.7826V40.1292ZM27.7826 33.9552H24.6956V30.8683H27.7826V33.9552ZM33.9565 40.1292H30.8695V37.0422H33.9565V40.1292ZM33.9565 33.9552H30.8695V30.8683H33.9565V33.9552ZM33.9565 27.7813H30.8695V24.6944H33.9565V27.7813ZM40.1304 40.1292H37.0434V37.0422H40.1304V40.1292ZM40.1304 33.9552H37.0434V30.8683H40.1304V33.9552ZM40.1304 27.7813H37.0434V24.6944H40.1304V27.7813ZM46.3043 46.3031H43.2173V43.2161H46.3043V46.3031ZM46.3043 40.1292H43.2173V37.0422H46.3043V40.1292Z" fill="#F8F8F8"/>
</g>
<defs>
<clipPath id="clip0_1485_1577">
<rect width="37.0435" height="37.0435" fill="white" transform="translate(16.9783 16.9785)"/>
</clipPath>
</defs>
</svg>
