<svg width="28" height="22" viewBox="0 0 28 22" fill="none" xmlns="http://www.w3.org/2000/svg">
<path fill-rule="evenodd" clip-rule="evenodd" d="M27.6371 7.67969C27.7332 7.67969 27.7332 7.77743 27.8293 7.77743V7.87516C27.8293 7.9729 27.7332 7.9729 27.7332 7.9729H27.6371C27.5409 7.9729 27.5409 7.9729 27.4448 7.9729C26.6758 7.9729 25.7146 7.9729 24.4649 8.16837C23.1192 8.2661 22.158 8.36384 21.389 8.46157C20.8122 8.55931 20.1393 8.65705 19.5626 8.75478C19.2742 8.75478 19.082 8.85252 18.7936 9.04799C18.1207 9.53667 17.2556 10.0253 16.4866 10.4163C15.7176 10.905 14.8525 11.2959 13.9874 11.5891C12.6416 12.2733 11.2959 12.7619 9.85402 13.2506C9.56564 13.3483 9.3734 13.4461 9.18115 13.7393C8.6044 15.0099 7.93153 16.2804 7.25866 17.551C6.58578 18.6261 6.00904 19.7012 5.43229 20.874C5.43229 20.874 5.43229 20.9717 5.33617 20.9717C5.33617 21.0695 5.24004 21.0695 5.14392 21.0695H5.04779C4.95167 20.9717 4.95167 20.9717 4.95167 20.874C4.95167 20.6785 4.95167 20.5808 5.04779 20.3853C5.62454 19.3102 6.20129 18.3329 6.77803 17.2578C7.25866 16.2804 7.8354 15.2053 8.31603 14.1302C8.41215 14.0325 8.41215 13.9348 8.50827 13.837V13.7393C8.50827 13.7393 8.41215 13.7393 8.41215 13.6416C8.31603 13.7393 8.2199 13.7393 8.12378 13.7393C8.12378 13.7393 8.12378 13.7393 8.02765 13.7393C7.06641 14.0325 6.10516 14.3257 5.04779 14.5212C4.37492 14.6189 3.70205 14.7166 2.93305 14.8144H2.83693C2.7408 14.8144 2.7408 14.8144 2.64468 14.8144C2.3563 14.8144 2.06793 14.8144 1.87568 14.7166C1.68343 14.6189 1.49118 14.5212 1.49118 14.3257C1.49118 14.228 1.49118 14.0325 1.58731 13.837C1.77956 13.6416 1.97181 13.4461 2.26018 13.3483C2.83693 12.9574 3.41367 12.6642 3.99042 12.4687C5.62454 11.8823 7.25866 11.2959 8.89277 10.8072C8.9889 10.8072 9.08502 10.8072 9.18115 10.7095C9.3734 10.7095 9.56564 10.6118 9.75789 10.6118C9.95014 10.514 10.0463 10.3185 10.1424 10.1231C10.5269 9.34119 10.8153 8.46157 11.1998 7.67969C11.4881 6.89781 11.7765 6.01819 12.0649 5.2363V5.13857C12.161 5.04083 12.161 4.84536 12.2571 4.74763C12.2571 4.64989 12.3533 4.64989 12.3533 4.64989C12.4494 4.64989 12.4494 4.64989 12.5455 4.64989C12.5455 4.64989 12.5455 4.64989 12.6416 4.64989C12.7378 4.64989 12.7378 4.74763 12.8339 4.84536C12.8339 5.04083 12.7378 5.2363 12.6416 5.52951C12.3533 6.6046 11.9688 7.67969 11.4881 8.65705C11.392 8.95025 11.2959 9.24346 11.1036 9.53667C11.1036 9.6344 11.1036 9.73214 11.0075 9.82987C11.0075 10.0253 10.9114 10.1231 10.9114 10.1231C11.0075 10.2208 11.0075 10.2208 11.0075 10.2208C11.1036 10.2208 11.1998 10.2208 11.2959 10.1231C11.6804 10.0253 11.9688 9.92761 12.2571 9.92761C12.8339 9.73214 13.4106 9.6344 13.9874 9.43893C15.4292 9.14572 16.775 8.85252 18.2169 8.55931C18.5052 8.55931 18.6975 8.46157 18.8897 8.2661C19.2742 7.9729 19.6587 7.58196 20.1393 7.19101C20.5238 6.80007 20.8122 6.31139 21.1006 5.82272C21.2928 5.33404 21.4851 4.84536 21.389 4.35668C21.389 3.86801 21.1967 3.28159 20.7161 2.79292C20.4277 2.49971 20.1393 2.30424 19.7548 2.01103C18.9858 1.62009 18.1207 1.32688 17.0634 1.13141C16.006 0.935943 14.8525 0.838208 13.6029 0.838208C12.3533 0.838208 11.1998 0.838208 9.95014 1.03368C8.70052 1.13141 7.54703 1.32688 6.48966 1.62009C5.43229 1.81556 4.56717 2.10877 3.79817 2.40198C3.1253 2.69518 2.45243 2.98839 1.87568 3.37933C1.68343 3.5748 1.39506 3.77027 1.20281 3.86801C1.01056 4.06348 0.818313 4.25895 0.626064 4.55216C0.529939 4.64989 0.529939 4.64989 0.33769 4.64989H0.241565C0.241565 4.64989 0.241565 4.64989 0.145441 4.64989C0.145441 4.64989 0.0493164 4.64989 0.0493164 4.55216C0.0493164 4.45442 0.0493164 4.45442 0.0493164 4.45442C0.145441 4.25895 0.145441 4.16121 0.241565 4.06348C0.33769 3.96574 0.433814 3.86801 0.529939 3.77027C0.818313 3.5748 1.10669 3.37933 1.39506 3.18386C1.68343 2.98839 1.97181 2.79292 2.26018 2.69518C2.93305 2.30424 3.8943 1.9133 5.14392 1.62009C6.29741 1.22915 7.54703 1.03368 8.9889 0.838208C10.3346 0.642737 11.7765 0.447266 13.2184 0.447266C14.5641 0.447266 15.9099 0.545001 17.1595 0.740472C18.4091 0.935943 19.4665 1.32688 20.3316 1.81556C20.7161 2.01103 21.1006 2.30424 21.389 2.59745C21.8696 3.18386 22.0618 3.67254 22.158 4.16121C22.158 4.64989 22.158 5.04083 21.9657 5.52951C21.7735 6.01819 21.4851 6.40913 21.1006 6.80007C20.8122 7.28875 20.4277 7.67969 20.1393 7.9729C20.0432 8.07063 20.0432 8.07063 19.9471 8.16837V8.2661C19.9471 8.2661 19.9471 8.36384 20.1393 8.2661C21.2928 8.07063 22.4463 7.9729 23.5998 7.87516C24.8494 7.77743 26.0029 7.67969 27.2526 7.67969C27.2526 7.67969 27.2526 7.67969 27.3487 7.67969C27.4448 7.67969 27.5409 7.67969 27.6371 7.67969ZM8.89277 12.9574C8.9889 12.8597 8.9889 12.7619 9.08502 12.6642C9.18115 12.4687 9.27727 12.2733 9.3734 11.9801C9.46952 11.7846 9.56564 11.5891 9.66177 11.3936C9.66177 11.1982 9.66177 11.1004 9.56564 11.1004C9.46952 11.1004 9.46952 11.1004 9.3734 11.1004C9.3734 11.1004 9.3734 11.1004 9.27727 11.1004C9.08502 11.1982 8.89277 11.2959 8.6044 11.3936C8.12378 11.4914 7.54703 11.6868 6.97028 11.8823C6.97028 11.8823 6.97028 11.8823 6.87416 11.8823C5.91291 12.1755 4.95167 12.5665 3.99042 12.9574C3.5098 13.1529 3.1253 13.3483 2.64468 13.6416C2.45243 13.7393 2.3563 13.9348 2.26018 14.0325C2.16406 14.1302 2.16406 14.1302 2.16406 14.228C2.26018 14.3257 2.26018 14.3257 2.3563 14.3257C2.45243 14.4234 2.64468 14.4234 2.83693 14.4234C2.93305 14.4234 3.02918 14.4234 3.22143 14.4234C3.8943 14.3257 4.56717 14.228 5.24004 14.0325C6.39353 13.837 7.4509 13.5438 8.50827 13.2506V13.1529C8.6044 13.1529 8.70052 13.1529 8.70052 13.1529C8.79665 13.0551 8.89277 13.0551 8.89277 12.9574ZM9.85402 12.7619C10.4308 12.5665 11.2959 12.2733 12.4494 11.7846C13.5067 11.2959 14.5641 10.8072 15.6215 10.3185C16.5827 9.82987 17.2556 9.43893 17.6401 9.04799H17.544C15.237 9.53667 13.1223 10.0253 10.9114 10.7095C10.7191 10.7095 10.5269 10.905 10.5269 11.0027C10.3346 11.2959 10.2385 11.5891 10.1424 11.8823C10.0463 12.0778 9.95014 12.2733 9.85402 12.5665C9.75789 12.5665 9.75789 12.5665 9.75789 12.6642C9.75789 12.6642 9.75789 12.6642 9.85402 12.7619Z" fill="#155EEF"/>
</svg>
