<svg width="134" height="24" viewBox="0 0 134 24" fill="none" xmlns="http://www.w3.org/2000/svg">
<path fill-rule="evenodd" clip-rule="evenodd" d="M27.6371 9.67969C27.7332 9.67969 27.7332 9.77743 27.8293 9.77743V9.87516C27.8293 9.9729 27.7332 9.9729 27.7332 9.9729H27.6371C27.5409 9.9729 27.5409 9.9729 27.4448 9.9729C26.6758 9.9729 25.7146 9.9729 24.4649 10.1684C23.1192 10.2661 22.158 10.3638 21.389 10.4616C20.8122 10.5593 20.1393 10.657 19.5626 10.7548C19.2742 10.7548 19.082 10.8525 18.7936 11.048C18.1207 11.5367 17.2556 12.0253 16.4866 12.4163C15.7176 12.905 14.8525 13.2959 13.9874 13.5891C12.6416 14.2733 11.2959 14.7619 9.85402 15.2506C9.56564 15.3483 9.37339 15.4461 9.18115 15.7393C8.6044 17.0099 7.93153 18.2804 7.25866 19.551C6.58578 20.6261 6.00904 21.7012 5.43229 22.874C5.43229 22.874 5.43229 22.9717 5.33616 22.9717C5.33616 23.0695 5.24004 23.0695 5.14392 23.0695H5.04779C4.95167 22.9717 4.95167 22.9717 4.95167 22.874C4.95167 22.6785 4.95167 22.5808 5.04779 22.3853C5.62454 21.3102 6.20129 20.3329 6.77803 19.2578C7.25866 18.2804 7.8354 17.2053 8.31603 16.1302C8.41215 16.0325 8.41215 15.9348 8.50827 15.837V15.7393C8.50827 15.7393 8.41215 15.7393 8.41215 15.6416C8.31603 15.7393 8.2199 15.7393 8.12378 15.7393C8.12378 15.7393 8.12378 15.7393 8.02765 15.7393C7.06641 16.0325 6.10516 16.3257 5.04779 16.5212C4.37492 16.6189 3.70205 16.7166 2.93305 16.8144H2.83693C2.7408 16.8144 2.7408 16.8144 2.64468 16.8144C2.3563 16.8144 2.06793 16.8144 1.87568 16.7166C1.68343 16.6189 1.49118 16.5212 1.49118 16.3257C1.49118 16.228 1.49118 16.0325 1.58731 15.837C1.77956 15.6416 1.97181 15.4461 2.26018 15.3483C2.83693 14.9574 3.41367 14.6642 3.99042 14.4687C5.62454 13.8823 7.25866 13.2959 8.89277 12.8072C8.9889 12.8072 9.08502 12.8072 9.18115 12.7095C9.37339 12.7095 9.56564 12.6118 9.75789 12.6118C9.95014 12.514 10.0463 12.3185 10.1424 12.1231C10.5269 11.3412 10.8153 10.4616 11.1998 9.67969C11.4881 8.89781 11.7765 8.01819 12.0649 7.2363V7.13857C12.161 7.04083 12.161 6.84536 12.2571 6.74763C12.2571 6.64989 12.3533 6.64989 12.3533 6.64989C12.4494 6.64989 12.4494 6.64989 12.5455 6.64989C12.5455 6.64989 12.5455 6.64989 12.6416 6.64989C12.7378 6.64989 12.7378 6.74763 12.8339 6.84536C12.8339 7.04083 12.7378 7.2363 12.6416 7.52951C12.3533 8.6046 11.9688 9.67969 11.4881 10.657C11.392 10.9503 11.2959 11.2435 11.1036 11.5367C11.1036 11.6344 11.1036 11.7321 11.0075 11.8299C11.0075 12.0253 10.9114 12.1231 10.9114 12.1231C11.0075 12.2208 11.0075 12.2208 11.0075 12.2208C11.1036 12.2208 11.1998 12.2208 11.2959 12.1231C11.6804 12.0253 11.9688 11.9276 12.2571 11.9276C12.8339 11.7321 13.4106 11.6344 13.9874 11.4389C15.4292 11.1457 16.775 10.8525 18.2169 10.5593C18.5052 10.5593 18.6975 10.4616 18.8897 10.2661C19.2742 9.9729 19.6587 9.58196 20.1393 9.19101C20.5238 8.80007 20.8122 8.31139 21.1006 7.82272C21.2928 7.33404 21.4851 6.84536 21.389 6.35668C21.389 5.86801 21.1967 5.28159 20.7161 4.79292C20.4277 4.49971 20.1393 4.30424 19.7548 4.01103C18.9858 3.62009 18.1207 3.32688 17.0634 3.13141C16.006 2.93594 14.8525 2.83821 13.6029 2.83821C12.3533 2.83821 11.1998 2.83821 9.95014 3.03368C8.70052 3.13141 7.54703 3.32688 6.48966 3.62009C5.43229 3.81556 4.56717 4.10877 3.79817 4.40198C3.1253 4.69518 2.45243 4.98839 1.87568 5.37933C1.68343 5.5748 1.39506 5.77027 1.20281 5.86801C1.01056 6.06348 0.818313 6.25895 0.626064 6.55216C0.529939 6.64989 0.529939 6.64989 0.33769 6.64989H0.241565C0.241565 6.64989 0.241565 6.64989 0.145441 6.64989C0.145441 6.64989 0.0493164 6.64989 0.0493164 6.55216C0.0493164 6.45442 0.0493164 6.45442 0.0493164 6.45442C0.145441 6.25895 0.145441 6.16121 0.241565 6.06348C0.33769 5.96574 0.433814 5.86801 0.529939 5.77027C0.818313 5.5748 1.10669 5.37933 1.39506 5.18386C1.68343 4.98839 1.97181 4.79292 2.26018 4.69518C2.93305 4.30424 3.8943 3.9133 5.14392 3.62009C6.29741 3.22915 7.54703 3.03368 8.9889 2.83821C10.3346 2.64274 11.7765 2.44727 13.2184 2.44727C14.5641 2.44727 15.9099 2.545 17.1595 2.74047C18.4091 2.93594 19.4665 3.32688 20.3316 3.81556C20.7161 4.01103 21.1006 4.30424 21.389 4.59745C21.8696 5.18386 22.0618 5.67254 22.158 6.16121C22.158 6.64989 22.158 7.04083 21.9657 7.52951C21.7735 8.01819 21.4851 8.40913 21.1006 8.80007C20.8122 9.28875 20.4277 9.67969 20.1393 9.9729C20.0432 10.0706 20.0432 10.0706 19.9471 10.1684V10.2661C19.9471 10.2661 19.9471 10.3638 20.1393 10.2661C21.2928 10.0706 22.4463 9.9729 23.5998 9.87516C24.8494 9.77743 26.0029 9.67969 27.2526 9.67969C27.2526 9.67969 27.2526 9.67969 27.3487 9.67969C27.4448 9.67969 27.5409 9.67969 27.6371 9.67969ZM8.89277 14.9574C8.9889 14.8597 8.9889 14.7619 9.08502 14.6642C9.18115 14.4687 9.27727 14.2733 9.37339 13.9801C9.46952 13.7846 9.56564 13.5891 9.66177 13.3936C9.66177 13.1982 9.66177 13.1004 9.56564 13.1004C9.46952 13.1004 9.46952 13.1004 9.37339 13.1004C9.37339 13.1004 9.37339 13.1004 9.27727 13.1004C9.08502 13.1982 8.89277 13.2959 8.6044 13.3936C8.12378 13.4914 7.54703 13.6868 6.97028 13.8823C6.97028 13.8823 6.97028 13.8823 6.87416 13.8823C5.91291 14.1755 4.95167 14.5665 3.99042 14.9574C3.5098 15.1529 3.1253 15.3483 2.64468 15.6416C2.45243 15.7393 2.3563 15.9348 2.26018 16.0325C2.16406 16.1302 2.16406 16.1302 2.16406 16.228C2.26018 16.3257 2.26018 16.3257 2.3563 16.3257C2.45243 16.4234 2.64468 16.4234 2.83693 16.4234C2.93305 16.4234 3.02918 16.4234 3.22143 16.4234C3.8943 16.3257 4.56717 16.228 5.24004 16.0325C6.39353 15.837 7.4509 15.5438 8.50827 15.2506V15.1529C8.6044 15.1529 8.70052 15.1529 8.70052 15.1529C8.79665 15.0551 8.89277 15.0551 8.89277 14.9574ZM9.85402 14.7619C10.4308 14.5665 11.2959 14.2733 12.4494 13.7846C13.5067 13.2959 14.5641 12.8072 15.6215 12.3185C16.5827 11.8299 17.2556 11.4389 17.6401 11.048H17.544C15.237 11.5367 13.1223 12.0253 10.9114 12.7095C10.7191 12.7095 10.5269 12.905 10.5269 13.0027C10.3346 13.2959 10.2385 13.5891 10.1424 13.8823C10.0463 14.0778 9.95014 14.2733 9.85402 14.5665C9.75789 14.5665 9.75789 14.5665 9.75789 14.6642C9.75789 14.6642 9.75789 14.6642 9.85402 14.7619Z" fill="#155EEF"/>
<path fill-rule="evenodd" clip-rule="evenodd" d="M24.1766 13.9778C23.9844 14.1732 23.696 14.3687 23.5037 14.4664C23.2154 14.5642 23.0231 14.6619 22.8309 14.7596C22.7348 14.7596 22.5425 14.7596 22.3503 14.7596C22.0619 14.7596 21.7735 14.7596 21.5813 14.6619C21.1968 14.4664 21.0045 14.1732 21.1968 13.7823C21.2929 13.3913 21.4851 13.0981 21.8696 12.8049C22.158 12.6095 22.5425 12.5117 22.927 12.5117C23.0231 12.5117 23.1192 12.5117 23.2154 12.5117C23.3115 12.6095 23.4076 12.7072 23.4076 12.8049C23.5037 12.9027 23.5037 13.0004 23.4076 13.1959C23.2154 13.4891 22.927 13.6845 22.5425 13.6845C22.2541 13.7823 22.0619 13.6845 21.8696 13.6845C21.7735 13.6845 21.7735 13.6845 21.7735 13.6845C21.6774 13.7823 21.6774 13.7823 21.6774 13.7823C21.5813 14.0755 21.6774 14.271 21.9658 14.3687C22.2541 14.4664 22.5425 14.4664 22.8309 14.3687C23.2154 14.271 23.5037 14.0755 23.8882 13.6845C24.1766 13.3913 24.3689 13.2936 24.465 13.2936C24.465 13.2936 24.465 13.3913 24.465 13.4891C24.465 13.5868 24.3689 13.7823 24.1766 13.9778ZM22.0619 13.1959C22.0619 13.1959 22.0619 13.1959 22.0619 13.2936C22.158 13.3913 22.2541 13.3913 22.4464 13.3913C22.5425 13.3913 22.6386 13.2936 22.7348 13.2936C22.8309 13.1959 22.927 13.0981 22.927 13.0004C22.927 12.9027 22.8309 12.9027 22.8309 12.9027H22.7348C22.4464 12.9027 22.2541 13.0004 22.0619 13.1959Z" fill="#155EEF"/>
<path fill-rule="evenodd" clip-rule="evenodd" d="M30.3284 8.01668C30.4246 8.01668 30.4246 8.01668 30.4246 8.01668C30.5207 8.01668 30.6168 8.01668 30.6168 7.91895C30.7129 7.91895 30.7129 7.91895 30.8091 7.91895C30.8091 8.01668 30.8091 8.01668 30.8091 8.01668C30.8091 8.21215 30.7129 8.30989 30.7129 8.50536H30.6168C30.4246 9.18951 30.1362 9.77592 29.8478 10.3623C29.7517 10.4601 29.7517 10.5578 29.7517 10.6555C29.6556 10.851 29.4633 11.1442 29.3672 11.4374C29.1749 11.7306 29.0788 12.0238 28.8866 12.317C28.9827 12.2193 29.1749 12.1216 29.3672 12.0238C29.5594 11.9261 29.6556 11.9261 29.7517 11.9261C30.0401 11.9261 30.2323 12.1216 30.3284 12.4148C30.3284 12.8057 30.3284 13.1967 30.1362 13.5876C29.9439 13.9785 29.6556 14.3695 29.3672 14.565C29.0788 14.7604 28.7904 14.7604 28.5982 14.7604C28.3098 14.7604 28.1176 14.6627 27.9253 14.4672C27.8292 14.4672 27.8292 14.4672 27.8292 14.565C27.7331 14.565 27.7331 14.6627 27.7331 14.6627C27.637 14.6627 27.637 14.6627 27.637 14.6627C27.5408 14.6627 27.5408 14.6627 27.5408 14.6627C27.4447 14.565 27.4447 14.4672 27.4447 14.3695C27.7331 13.6853 28.0214 12.9035 28.4059 12.1216C28.7904 11.3397 29.1749 10.6555 29.4633 9.87366C29.6556 9.58045 29.8478 9.18951 29.9439 8.8963C30.0401 8.79856 30.1362 8.70083 30.1362 8.50536C30.2323 8.40762 30.3284 8.21215 30.3284 8.01668ZM29.1749 12.5125C28.8866 12.708 28.6943 12.9035 28.5021 13.1967C28.3098 13.4899 28.3098 13.6853 28.3098 13.9785C28.3098 14.174 28.4059 14.2718 28.5021 14.3695C28.5982 14.4672 28.7904 14.3695 28.8866 14.2718C29.0788 14.174 29.1749 13.9785 29.2711 13.7831C29.4633 13.5876 29.5594 13.3921 29.6556 13.0989C29.7517 12.9035 29.7517 12.708 29.7517 12.6102C29.7517 12.4148 29.7517 12.317 29.6556 12.317C29.5594 12.317 29.3672 12.317 29.1749 12.5125Z" fill="#155EEF"/>
<path fill-rule="evenodd" clip-rule="evenodd" d="M36.7689 8.01668C36.7689 8.01668 36.7689 8.01668 36.865 8.01668C36.865 8.01668 36.9612 8.01668 37.0573 7.91895H37.1534C37.2495 8.01668 37.2495 8.01668 37.2495 8.01668C37.1534 8.21215 37.1534 8.30989 37.0573 8.50536C36.7689 9.18951 36.4805 9.77592 36.1922 10.3623C36.1922 10.4601 36.0961 10.5578 36.0961 10.6555C35.9999 10.851 35.9038 11.1442 35.7116 11.4374C35.5193 11.7306 35.4232 12.0238 35.3271 12.317C35.4232 12.2193 35.5193 12.1216 35.7116 12.0238C35.9038 11.9261 35.9999 11.9261 36.0961 11.9261C36.4805 11.9261 36.6728 12.1216 36.6728 12.4148C36.7689 12.8057 36.6728 13.1967 36.4805 13.5876C36.2883 13.9785 35.9999 14.3695 35.7116 14.565C35.4232 14.7604 35.2309 14.7604 34.9426 14.7604C34.7503 14.7604 34.5581 14.6627 34.3658 14.4672C34.2697 14.4672 34.2697 14.4672 34.2697 14.4672C34.2697 14.4672 34.1736 14.4672 34.1736 14.565L34.0774 14.6627H33.9813H33.8852C33.7891 14.565 33.7891 14.4672 33.7891 14.3695C34.0774 13.6853 34.4619 12.9035 34.7503 12.1216C35.1348 11.3397 35.5193 10.6555 35.9038 9.87366C35.9999 9.58045 36.1922 9.18951 36.3844 8.8963C36.3844 8.79856 36.4805 8.70083 36.4805 8.50536C36.5767 8.40762 36.6728 8.21215 36.7689 8.01668ZM35.5193 12.5125C35.3271 12.708 35.0387 12.9035 34.8464 13.1967C34.7503 13.4899 34.6542 13.6853 34.6542 13.9785C34.7503 14.174 34.7503 14.2718 34.9426 14.3695C35.0387 14.4672 35.1348 14.3695 35.2309 14.2718C35.4232 14.174 35.5193 13.9785 35.7116 13.7831C35.8077 13.5876 35.9038 13.3921 35.9999 13.0989C36.0961 12.9035 36.1922 12.708 36.1922 12.6102C36.1922 12.4148 36.0961 12.317 35.9999 12.317C35.9999 12.317 35.8077 12.317 35.5193 12.5125Z" fill="#155EEF"/>
<path fill-rule="evenodd" clip-rule="evenodd" d="M43.017 13.4899C43.1131 13.3922 43.2093 13.3922 43.2093 13.2945C43.3054 13.2945 43.4015 13.2945 43.4015 13.3922C43.4015 13.3922 43.4015 13.4899 43.3054 13.4899C43.1131 13.8809 42.7286 14.1741 42.4403 14.4673C42.0558 14.6628 41.6713 14.8582 41.2868 14.8582C40.9023 14.8582 40.71 14.6628 40.6139 14.2718C40.6139 13.7832 40.8061 12.9035 41.479 11.5352C42.0558 10.1669 42.5364 8.99411 42.8248 8.1145C42.9209 8.01676 42.9209 7.91902 43.017 7.91902C43.017 7.82129 43.1131 7.82129 43.2093 7.82129C43.3054 7.82129 43.3054 7.91902 43.4015 7.91902C43.4015 7.91902 43.4015 8.01676 43.4015 8.1145C41.8635 11.8284 41.0945 13.7832 41.1906 14.0764C41.1906 14.4673 41.479 14.4673 41.7674 14.3696C42.1519 14.1741 42.4403 13.9786 42.6325 13.8809C42.8248 13.6854 42.9209 13.5877 43.017 13.4899Z" fill="#155EEF"/>
<path fill-rule="evenodd" clip-rule="evenodd" d="M49.5534 13.9778C49.3612 14.1732 49.0728 14.3687 48.8806 14.4664C48.5922 14.5642 48.4 14.6619 48.2077 14.7596C48.1116 14.7596 47.9193 14.7596 47.7271 14.7596C47.4387 14.7596 47.1503 14.7596 46.9581 14.6619C46.5736 14.4664 46.3813 14.1732 46.5736 13.7823C46.6697 13.3913 46.862 13.0981 47.2465 12.8049C47.5348 12.6095 47.9193 12.5117 48.3038 12.5117C48.4 12.5117 48.4961 12.5117 48.5922 12.5117C48.6883 12.6095 48.7845 12.7072 48.7845 12.8049C48.8806 12.9027 48.8806 13.0004 48.7845 13.1959C48.5922 13.4891 48.3038 13.6845 47.9193 13.6845C47.7271 13.7823 47.4387 13.6845 47.2465 13.6845C47.1503 13.6845 47.1503 13.6845 47.1503 13.6845C47.0542 13.7823 47.0542 13.7823 47.0542 13.7823C46.9581 14.0755 47.0542 14.271 47.3426 14.3687C47.631 14.4664 47.9193 14.4664 48.2077 14.3687C48.5922 14.271 48.8806 14.0755 49.2651 13.6845C49.5534 13.3913 49.7457 13.2936 49.8418 13.2936C49.8418 13.2936 49.8418 13.3913 49.8418 13.4891C49.8418 13.5868 49.7457 13.7823 49.5534 13.9778ZM47.4387 13.1959C47.4387 13.1959 47.4387 13.1959 47.4387 13.2936C47.5348 13.3913 47.7271 13.3913 47.8232 13.3913C47.9193 13.3913 48.0155 13.2936 48.1116 13.2936C48.2077 13.1959 48.3038 13.0981 48.3038 13.0004C48.3038 12.9027 48.2077 12.9027 48.2077 12.9027H48.1116C47.8232 12.9027 47.631 13.0004 47.4387 13.1959Z" fill="#155EEF"/>
<path fill-rule="evenodd" clip-rule="evenodd" d="M55.6094 13.3859C55.1288 13.5813 54.7443 13.6791 54.552 13.8746C54.3598 13.8746 54.2636 13.9723 54.2636 14.07C54.1675 14.07 54.2636 14.1678 54.2636 14.3632C54.3598 14.5587 54.4559 14.7542 54.4559 14.9496C54.4559 15.2428 54.1675 15.5361 53.4946 15.7315C52.8218 15.8293 52.4373 15.8293 52.1489 15.7315C51.9567 15.5361 51.8605 15.4383 51.9567 15.1451C52.0528 14.9496 52.245 14.7542 52.6295 14.5587C53.014 14.2655 53.2063 14.1678 53.3024 14.07C53.4946 13.9723 53.4946 13.8746 53.4946 13.6791C53.3985 13.6791 53.3985 13.5813 53.3985 13.5813C53.3985 13.4836 53.3024 13.3859 53.3024 13.2881C53.2063 13.0927 53.1101 12.8972 53.2063 12.7017C53.2063 12.5063 53.2063 12.3108 53.3985 12.213C53.4946 12.1153 53.6869 12.0176 53.9753 12.0176C54.0714 12.0176 54.2636 12.0176 54.3598 12.1153C54.4559 12.1153 54.552 12.213 54.6481 12.3108C54.7443 12.4085 54.7443 12.5063 54.6481 12.604C54.552 12.604 54.4559 12.604 54.3598 12.604C54.3598 12.604 54.3598 12.5063 54.2636 12.5063C54.2636 12.5063 54.2636 12.5063 54.2636 12.4085C54.1675 12.4085 54.1675 12.4085 54.1675 12.4085C54.0714 12.3108 53.9753 12.3108 53.8791 12.3108C53.783 12.3108 53.783 12.4085 53.6869 12.5063C53.6869 12.604 53.6869 12.7017 53.6869 12.7995C53.6869 12.8972 53.6869 12.9949 53.783 13.0927C53.783 13.1904 53.783 13.1904 53.783 13.2881C53.8791 13.3859 53.8791 13.4836 53.9753 13.5813L54.0714 13.6791C54.1675 13.5813 54.552 13.4836 55.4171 13.0927C55.6094 13.0927 55.7055 13.1904 55.6094 13.3859ZM53.4946 15.2428C53.783 15.1451 53.8791 15.0474 53.783 14.7542C53.783 14.5587 53.783 14.5587 53.6869 14.461C53.6869 14.3632 53.5908 14.3632 53.4946 14.461C53.1101 14.6564 52.8218 14.8519 52.5334 15.1451C52.5334 15.1451 52.5334 15.1451 52.4373 15.1451V15.2428C52.4373 15.2428 52.4373 15.2428 52.4373 15.3406H52.5334C52.9179 15.4383 53.2063 15.3406 53.4946 15.2428Z" fill="#155EEF"/>
<path fill-rule="evenodd" clip-rule="evenodd" d="M91.4637 1.6615C91.4637 1.75924 91.5598 1.85697 91.6559 1.95471C91.7521 2.05244 91.7521 2.15018 91.7521 2.24792C91.8482 2.34565 91.7521 2.54112 91.6559 2.54112C91.5598 2.63886 91.4637 2.63886 91.4637 2.54112C91.3676 2.54112 91.2715 2.54112 91.2715 2.44339C91.1753 2.24792 91.0792 2.05244 90.887 1.95471C90.7908 1.75924 90.5986 1.6615 90.4063 1.56377C90.0218 1.3683 89.6373 1.17283 89.1567 1.07509C88.7722 0.879619 88.2916 0.781884 87.9071 0.684148C87.1381 0.586413 86.1768 0.390942 84.9272 0.390942C83.7737 0.390942 82.3319 0.390942 80.89 0.488677C79.352 0.488677 77.9101 0.684148 76.276 0.977355C74.738 1.17283 73.2962 1.46603 71.8543 1.95471C70.4124 2.34565 69.1628 2.83433 68.0093 3.51848C66.9519 4.10489 66.183 4.88677 65.6062 5.66866C65.2217 6.45054 65.1256 7.23242 65.414 8.01431C65.6062 8.60072 65.7985 9.0894 66.183 9.57808C66.7597 10.2622 67.3364 10.9464 68.0093 11.5328C68.5861 12.0215 69.0667 12.5101 69.6434 12.9988C70.2202 13.4875 70.7008 13.9762 71.2776 14.5626C71.8543 15.0513 72.5272 15.6377 73.1039 16.2241C73.1039 16.3218 73.2 16.3218 73.2962 16.4196C73.5845 16.7128 73.8729 17.006 74.0652 17.3969C74.3535 17.7879 74.3535 18.1788 74.2574 18.3743C74.0652 18.5697 73.7768 18.7652 73.3923 18.8629C72.9117 18.9607 72.431 18.9607 71.8543 18.9607C71.2776 18.8629 70.7008 18.8629 70.1241 18.6675C69.5473 18.5697 69.0667 18.472 68.6822 18.2765C68.2016 18.1788 67.9132 17.9833 67.7209 17.7879C67.3364 17.4946 67.3364 17.1037 67.6248 16.7128C67.9132 16.3218 68.3938 16.0286 68.8744 15.8331C69.6434 15.5399 70.3163 15.5399 71.0853 15.8331C71.1814 15.8331 71.3737 15.9309 71.4698 16.0286C71.5659 16.0286 71.5659 16.0286 71.5659 16.1264V16.2241C71.4698 16.3218 71.3737 16.3218 71.3737 16.3218C71.2776 16.2241 71.1814 16.2241 71.0853 16.2241C70.6047 15.9309 70.1241 15.8331 69.5473 16.0286C68.9706 16.2241 68.5861 16.5173 68.2016 16.9082C68.0093 17.1037 68.0093 17.2992 68.1054 17.4946C68.2977 17.6901 68.4899 17.7879 68.7783 17.8856C69.0667 17.9833 69.4512 18.0811 69.7396 18.1788C70.0279 18.2765 70.2202 18.2765 70.4124 18.2765C70.5086 18.2765 70.5086 18.2765 70.6047 18.2765C70.7008 18.3743 70.9892 18.3743 71.3737 18.472C71.662 18.472 72.0465 18.5697 72.3349 18.5697C72.7194 18.5697 73.0078 18.5697 73.2962 18.472C73.4884 18.3743 73.6807 18.2765 73.6807 18.0811C73.6807 17.8856 73.5845 17.5924 73.2962 17.2992C72.9117 16.9082 72.6233 16.5173 72.2388 16.1264C71.2776 15.2467 70.3163 14.3671 69.3551 13.4875C69.0667 13.1943 68.6822 12.9011 68.2977 12.5101C67.7209 12.0215 67.1442 11.4351 66.6636 10.9464C66.0868 10.36 65.6062 9.87128 65.2217 9.18713C64.9333 8.79619 64.7411 8.30752 64.645 7.81884C64.4527 6.93922 64.645 6.15733 65.1256 5.47319C65.6062 4.6913 66.3752 3.90942 67.4326 3.32301C68.3938 2.73659 69.5473 2.15018 70.7969 1.75924C72.1427 1.3683 73.5845 0.977355 75.0264 0.684148C76.4683 0.390942 78.0063 0.195471 79.5443 0.0977355C80.9861 0 82.428 0 83.8699 0C85.2156 0.0977355 86.4652 0.195471 87.6187 0.293206C88.6761 0.488677 89.6373 0.781884 90.4063 1.07509C90.6947 1.17283 91.0792 1.46603 91.4637 1.6615Z" fill="#155EEF"/>
<path fill-rule="evenodd" clip-rule="evenodd" d="M79.1601 13.7833C79.0639 13.9788 78.8717 14.1743 78.5833 14.3697C78.3911 14.5652 78.1027 14.6629 77.8143 14.7607C77.5259 14.7607 77.2376 14.7607 77.1414 14.6629C76.9492 14.5652 76.9492 14.272 77.0453 13.9788C77.1414 13.5878 77.3337 13.1969 77.5259 12.9037C77.6221 12.806 77.7182 12.806 77.7182 12.7082C77.8143 12.7082 77.9104 12.7082 77.9104 12.806C78.0066 12.806 78.0066 12.9037 78.0066 12.9037C78.0066 13.0014 77.9104 13.1969 77.8143 13.2946C77.8143 13.3924 77.7182 13.4901 77.7182 13.4901C77.6221 13.6856 77.5259 13.9788 77.5259 14.1743C77.5259 14.272 77.7182 14.272 78.0066 14.1743C78.3911 14.0765 78.6794 13.881 79.0639 13.5878C79.3523 13.2946 79.5446 13.1969 79.4484 13.2946C79.4484 13.3924 79.3523 13.5878 79.1601 13.7833ZM78.3911 12.1218L78.2949 12.2195C78.1988 12.2195 78.1988 12.2195 78.1027 12.2195C78.0066 12.2195 78.0066 12.2195 78.0066 12.2195C77.9104 12.2195 77.9104 12.1218 78.0066 12.0241C78.0066 11.9263 78.1027 11.8286 78.1027 11.7309C78.1988 11.6331 78.2949 11.4377 78.3911 11.3399C78.3911 11.3399 78.4872 11.2422 78.5833 11.2422C78.5833 11.2422 78.6794 11.2422 78.6794 11.3399C78.7756 11.3399 78.7756 11.4377 78.7756 11.4377C78.6794 11.7309 78.5833 11.9263 78.3911 12.1218Z" fill="#155EEF"/>
<path fill-rule="evenodd" clip-rule="evenodd" d="M87.138 13.1972H87.2341L87.3302 13.295V13.3927C87.2341 13.3927 87.2341 13.4904 87.2341 13.4904C86.9457 13.5882 86.6574 13.7836 86.369 13.8814C85.9845 14.0768 85.6 14.2723 85.3116 14.4678C85.2155 14.4678 85.2155 14.4678 85.1194 14.5655C85.0233 14.5655 85.0233 14.5655 84.9271 14.6633C84.7349 14.761 84.6388 14.8587 84.5426 15.0542C84.3504 15.5429 84.2543 15.9338 84.062 16.4225C83.8698 17.0089 83.5814 17.4976 83.293 18.084C83.1008 18.3772 82.8124 18.6704 82.6201 18.8659C82.2356 19.1591 81.9473 19.3546 81.4667 19.4523C80.7938 19.55 80.217 19.55 79.5442 19.2568C79.3519 19.2568 79.0635 19.0613 78.9674 18.8659C78.679 18.5727 78.679 18.2795 78.8713 17.9863C78.9674 17.8885 79.0635 17.6931 79.2558 17.5953C79.5442 17.3998 79.8325 17.1066 80.1209 16.9112C81.2744 16.227 82.4279 15.5429 83.6775 14.8587C83.7736 14.8587 83.8698 14.761 84.062 14.6633C84.062 14.6633 84.062 14.6633 84.062 14.5655C84.1581 14.5655 84.1581 14.4678 84.1581 14.37V14.2723C84.1581 14.2723 84.062 14.2723 83.9659 14.37H83.8698C83.7736 14.4678 83.6775 14.4678 83.5814 14.4678C83.0046 14.6633 82.7163 14.4678 82.7163 13.8814C82.7163 13.4904 82.8124 13.1972 83.0046 12.904C83.1969 12.7085 83.4853 12.4153 83.7736 12.3176C84.062 12.1221 84.3504 12.1221 84.7349 12.1221H84.831C84.9271 12.1221 85.0233 12.1221 85.1194 12.1221C85.2155 12.1221 85.3116 12.1221 85.4078 12.1221C85.5039 12.0244 85.6 12.0244 85.6 12.1221C85.6961 12.2199 85.6961 12.3176 85.6961 12.4153C85.6 12.6108 85.5039 12.8063 85.4078 13.0017C85.3116 13.0995 85.2155 13.295 85.2155 13.3927C85.1194 13.5882 85.1194 13.6859 85.0233 13.8814C84.9271 14.0768 84.9271 14.1746 84.9271 14.1746C85.0233 14.1746 85.1194 14.1746 85.3116 14.0768C85.6 13.8814 85.8884 13.7836 86.1768 13.6859C86.369 13.5882 86.5613 13.4904 86.7535 13.3927C86.8496 13.295 87.0419 13.295 87.138 13.1972ZM83.6775 15.8361C83.7736 15.5429 83.8698 15.3474 83.8698 15.3474C83.7736 15.2497 83.7736 15.1519 83.6775 15.2497C83.5814 15.2497 83.3891 15.3474 83.1969 15.4451C83.1008 15.5429 83.0046 15.6406 82.8124 15.6406C82.0434 16.1293 81.2744 16.618 80.5054 17.1066C80.1209 17.3021 79.8325 17.5953 79.5442 17.8885C79.2558 18.1817 79.2558 18.4749 79.5442 18.6704C79.7364 18.8659 79.9287 18.9636 80.217 18.9636C80.4093 19.0613 80.6015 19.0613 80.8899 19.0613C81.1783 19.0613 81.4667 19.0613 81.755 18.8659C82.0434 18.7681 82.2356 18.5727 82.4279 18.2795C82.6201 18.084 82.7163 17.8885 82.8124 17.6931C83.1969 17.1066 83.4853 16.5202 83.6775 15.8361ZM83.3891 14.1746C83.4853 14.1746 83.5814 14.1746 83.7736 14.0768C83.8698 13.9791 84.062 13.7836 84.2543 13.6859C84.4465 13.4904 84.5426 13.295 84.6388 13.0995C84.7349 12.904 84.7349 12.8063 84.7349 12.6108C84.7349 12.6108 84.6388 12.6108 84.6388 12.5131C84.6388 12.5131 84.5426 12.4153 84.4465 12.5131C84.4465 12.5131 84.3504 12.5131 84.2543 12.5131C84.062 12.6108 83.8698 12.7085 83.6775 13.0017C83.4853 13.1972 83.3891 13.4904 83.293 13.6859C83.1969 13.8814 83.293 14.0768 83.3891 14.1746Z" fill="#155EEF"/>
<path fill-rule="evenodd" clip-rule="evenodd" d="M94.5398 13.3912C94.5398 13.4889 94.5398 13.5867 94.3475 13.7821C94.1553 13.9776 93.963 14.0753 93.7708 14.1731C93.5785 14.3685 93.2902 14.4663 93.0979 14.564C92.9057 14.6617 92.7134 14.6617 92.5212 14.6617C92.3289 14.6617 92.2328 14.4663 92.2328 14.2708C92.2328 14.0753 92.2328 13.8799 92.3289 13.5867C92.425 13.3912 92.425 13.2934 92.425 13.2934C92.3289 13.2934 92.2328 13.2934 92.0405 13.3912C91.5599 13.7821 91.1754 14.0753 90.7909 14.4663C90.6948 14.6617 90.5025 14.6617 90.4064 14.6617C90.3103 14.6617 90.2142 14.6617 90.2142 14.6617C90.118 14.564 90.118 14.564 90.118 14.4663C90.4064 13.8799 90.6948 13.3912 90.9832 12.9025C91.0793 12.8048 91.1754 12.707 91.2715 12.707C91.3677 12.707 91.3677 12.707 91.4638 12.707C91.4638 12.8048 91.5599 12.8048 91.5599 12.9025C91.5599 12.9025 91.4638 13.0002 91.4638 13.098C91.4638 13.098 91.4638 13.098 91.3677 13.1957V13.2934H91.4638C91.4638 13.2934 91.5599 13.2934 91.5599 13.1957C91.7522 13.1957 91.8483 13.098 91.9444 13.0002C92.0405 13.0002 92.1367 12.9025 92.2328 12.9025C92.425 12.8048 92.5212 12.8048 92.6173 12.8048C92.8095 12.707 92.9057 12.8048 93.0018 12.9025C93.0979 13.0002 93.0979 13.098 93.0979 13.2934C93.0018 13.4889 92.9057 13.6844 92.8095 13.7821C92.8095 13.9776 92.7134 14.0753 92.8095 14.1731C92.9057 14.2708 93.0979 14.1731 93.5785 13.8799L93.963 13.6844C94.3475 13.4889 94.5398 13.3912 94.5398 13.3912Z" fill="#155EEF"/>
<path fill-rule="evenodd" clip-rule="evenodd" d="M101.461 13.3915C101.557 13.3915 101.557 13.4892 101.461 13.6847C101.365 13.7824 101.268 13.8802 101.172 14.0756C101.076 14.1734 100.98 14.2711 100.788 14.2711V14.3689C100.692 14.3689 100.596 14.4666 100.499 14.4666C99.7305 14.7598 99.346 14.5643 99.346 13.9779C99.0576 14.2711 98.8653 14.4666 98.7692 14.4666C98.4808 14.6621 98.1925 14.7598 97.9041 14.6621C97.7118 14.6621 97.5196 14.6621 97.4235 14.4666C97.4235 14.3689 97.4235 14.1734 97.5196 13.9779C97.6157 13.6847 97.808 13.3915 98.0963 13.0983C98.3847 12.8051 98.7692 12.6096 99.0576 12.4141C99.346 12.3164 99.5382 12.3164 99.7305 12.3164C99.9227 12.3164 100.115 12.4141 100.115 12.7073C100.115 12.7073 100.115 12.8051 100.115 12.9028C100.019 12.9028 99.9227 13.0006 99.8266 12.9028C99.8266 12.9028 99.8266 12.9028 99.7305 12.9028C99.6343 12.8051 99.5382 12.7073 99.4421 12.7073C99.346 12.8051 99.2498 12.8051 99.1537 12.9028C98.6731 13.196 98.2886 13.587 98.0963 14.0756V14.1734V14.2711C98.0963 14.2711 98.1925 14.2711 98.2886 14.2711C98.3847 14.1734 98.3847 14.1734 98.4808 14.0756C98.577 14.0756 98.577 13.9779 98.6731 13.9779C98.8653 13.7824 99.1537 13.587 99.346 13.2938C99.4421 13.196 99.6343 13.196 99.7305 13.196C99.9227 13.196 100.019 13.2938 100.019 13.4892C100.019 13.4892 99.9227 13.587 99.9227 13.6847C99.8266 13.9779 99.8266 14.1734 99.9227 14.1734C100.019 14.2711 100.115 14.2711 100.307 14.1734C100.403 14.1734 100.596 14.0756 100.788 13.8802C100.884 13.7824 101.076 13.587 101.172 13.4892C101.268 13.3915 101.365 13.2938 101.461 13.3915Z" fill="#155EEF"/>
<path fill-rule="evenodd" clip-rule="evenodd" d="M107.901 13.49C107.42 13.9787 107.036 14.3696 106.555 14.6629C106.171 14.8583 105.786 14.9561 105.305 14.8583C104.825 14.7606 104.633 14.4674 104.729 13.881C104.729 13.5878 104.825 13.3923 104.921 13.0991C105.209 12.5127 105.402 11.8285 105.69 11.2421C105.786 11.0466 105.882 10.7534 105.978 10.558C105.978 10.4602 105.978 10.4602 105.978 10.3625C106.074 10.3625 106.074 10.2648 106.074 10.167C106.171 9.97155 106.074 9.97155 105.978 9.97155C105.882 9.97155 105.786 9.97155 105.69 9.97155C105.594 9.97155 105.594 9.97155 105.498 9.97155H105.402C105.305 9.97155 105.209 9.97155 105.113 9.97155C105.017 9.97155 105.017 9.97155 104.921 9.87381H104.825V9.77608C104.921 9.77608 104.921 9.67834 104.921 9.67834C105.017 9.67834 105.113 9.67834 105.113 9.67834C105.305 9.67834 105.498 9.67834 105.786 9.58061C105.786 9.58061 105.882 9.58061 105.978 9.58061C106.074 9.58061 106.171 9.58061 106.267 9.58061C106.267 9.58061 106.363 9.58061 106.363 9.48287C106.459 9.48287 106.459 9.38514 106.555 9.18966C106.555 9.18966 106.555 9.09193 106.651 8.99419C106.747 8.79872 106.843 8.50552 106.94 8.31005C107.036 8.21231 107.036 8.11457 107.132 8.01684C107.132 7.9191 107.228 7.82137 107.324 7.72363C107.42 7.72363 107.42 7.72363 107.516 7.82137C107.612 7.9191 107.612 7.9191 107.612 7.9191C107.612 8.01684 107.516 8.21231 107.516 8.31005C107.516 8.31005 107.42 8.31005 107.42 8.40778C107.42 8.50552 107.324 8.60325 107.324 8.70099C107.228 8.99419 107.132 9.18966 107.036 9.38514C107.036 9.48287 107.036 9.48287 107.036 9.58061H107.132C107.324 9.58061 107.612 9.58061 107.805 9.58061C107.901 9.58061 107.997 9.58061 108.189 9.58061C108.478 9.58061 108.67 9.67834 108.574 9.77608C108.478 9.77608 108.478 9.87381 108.381 9.87381H108.285C108.189 9.87381 108.189 9.87381 108.093 9.87381C107.805 9.87381 107.42 9.87381 107.036 9.87381C106.94 9.87381 106.747 9.97155 106.747 10.167C106.651 10.2648 106.651 10.3625 106.555 10.558C106.459 10.7534 106.363 10.9489 106.363 11.1444C106.267 11.2421 106.171 11.4376 106.074 11.6331C105.978 12.024 105.786 12.5127 105.594 12.9036C105.498 13.1968 105.402 13.49 105.305 13.7832C105.209 14.3696 105.402 14.5651 105.978 14.4674C106.459 14.3696 107.036 13.881 107.612 13.2946C107.901 13.0991 107.997 13.1968 107.901 13.49Z" fill="#155EEF"/>
<path fill-rule="evenodd" clip-rule="evenodd" d="M111.458 14.9553C111.073 14.9553 110.977 14.8575 110.977 14.4666C110.977 14.0756 111.169 13.3915 111.746 12.4141C111.746 12.4141 111.746 12.3164 111.842 12.3164C112.034 12.3164 112.131 12.4141 112.131 12.6096C112.131 12.6096 112.131 12.7073 112.034 12.8051C112.034 12.8051 111.842 13.2938 111.554 14.0756C111.554 14.2711 111.458 14.3689 111.458 14.3689C111.458 14.4666 111.554 14.5643 111.554 14.5643C111.842 14.5643 112.419 13.8802 113.476 12.7073C113.572 12.6096 113.669 12.5119 113.861 12.5119C113.957 12.5119 114.053 12.6096 114.053 12.7073C114.053 12.7073 114.053 13.0006 113.957 13.2938C113.765 13.7824 113.669 14.0756 113.669 14.0756C113.669 14.1734 113.765 14.2711 113.765 14.2711C113.957 14.2711 114.534 13.9779 115.303 13.2938C115.399 13.2938 115.399 13.196 115.495 13.196C115.591 13.196 115.591 13.2938 115.591 13.4892C115.11 13.9779 114.726 14.2711 114.438 14.4666C114.149 14.6621 113.861 14.7598 113.669 14.7598H113.572C113.188 14.6621 113.092 14.3689 113.092 13.9779C112.707 14.2711 112.419 14.4666 112.131 14.6621C111.938 14.8575 111.65 14.9553 111.458 14.9553Z" fill="#155EEF"/>
<path fill-rule="evenodd" clip-rule="evenodd" d="M121.262 12.8061C121.262 13.0993 121.166 13.1971 120.974 13.2948C120.782 13.3926 120.686 13.2948 120.782 13.0016C120.878 12.8061 120.782 12.7084 120.493 12.8061C120.205 13.0016 119.917 13.0993 119.724 13.2948C119.436 13.588 119.244 13.8812 119.052 14.2722C118.955 14.2722 118.955 14.2722 118.955 14.2722C118.859 14.3699 118.859 14.4676 118.763 14.5654C118.763 14.6631 118.667 14.6631 118.571 14.6631C118.571 14.7608 118.475 14.7608 118.475 14.6631C118.379 14.6631 118.379 14.6631 118.283 14.6631C118.283 14.5654 118.283 14.5654 118.283 14.5654C118.379 14.4676 118.379 14.3699 118.475 14.2722C118.763 13.6858 119.052 13.1971 119.34 12.6107C119.34 12.5129 119.436 12.4152 119.436 12.3175C119.532 12.3175 119.628 12.2197 119.724 12.2197C119.821 12.3175 119.821 12.3175 119.821 12.4152C119.917 12.5129 119.917 12.6107 119.917 12.6107C120.013 12.6107 120.013 12.6107 120.109 12.6107C120.301 12.5129 120.493 12.4152 120.686 12.4152C120.878 12.4152 121.07 12.4152 121.166 12.4152C121.262 12.5129 121.262 12.6107 121.262 12.8061Z" fill="#155EEF"/>
<path fill-rule="evenodd" clip-rule="evenodd" d="M127.799 13.9778C127.607 14.1732 127.414 14.3687 127.222 14.4664C126.934 14.5642 126.741 14.6619 126.549 14.7596C126.357 14.7596 126.261 14.7596 126.069 14.7596C125.78 14.7596 125.492 14.7596 125.3 14.6619C124.915 14.4664 124.723 14.1732 124.819 13.7823C125.011 13.3913 125.203 13.0981 125.492 12.8049C125.876 12.6095 126.261 12.5117 126.645 12.5117C126.741 12.5117 126.838 12.5117 126.838 12.5117C127.03 12.6095 127.126 12.7072 127.126 12.8049C127.222 12.9027 127.126 13.0004 127.03 13.1959C126.838 13.4891 126.549 13.6845 126.261 13.6845C125.972 13.7823 125.78 13.6845 125.588 13.6845C125.492 13.6845 125.492 13.6845 125.396 13.6845C125.396 13.7823 125.396 13.7823 125.396 13.7823C125.3 14.0755 125.396 14.271 125.684 14.3687C125.972 14.4664 126.261 14.4664 126.549 14.3687C126.934 14.271 127.222 14.0755 127.607 13.6845C127.895 13.3913 128.087 13.2936 128.087 13.2936C128.183 13.2936 128.183 13.3913 128.183 13.4891C128.087 13.5868 127.991 13.7823 127.799 13.9778ZM125.78 13.1959C125.78 13.1959 125.78 13.1959 125.78 13.2936C125.876 13.3913 125.972 13.3913 126.165 13.3913C126.261 13.3913 126.357 13.2936 126.453 13.2936C126.549 13.1959 126.645 13.0981 126.549 13.0004C126.549 12.9027 126.549 12.9027 126.549 12.9027C126.453 12.9027 126.453 12.9027 126.453 12.9027C126.165 12.9027 125.972 13.0004 125.78 13.1959Z" fill="#155EEF"/>
<path fill-rule="evenodd" clip-rule="evenodd" d="M133.951 13.3859C133.374 13.5813 133.086 13.6791 132.797 13.8746C132.701 13.8746 132.605 13.9723 132.509 14.07C132.509 14.07 132.509 14.1678 132.605 14.3632C132.701 14.5587 132.701 14.7542 132.701 14.9496C132.797 15.2428 132.413 15.5361 131.836 15.7315C131.163 15.8293 130.683 15.8293 130.49 15.7315C130.298 15.5361 130.202 15.4383 130.298 15.1451C130.394 14.9496 130.586 14.7542 130.971 14.5587C131.355 14.2655 131.548 14.1678 131.644 14.07C131.74 13.9723 131.836 13.8746 131.74 13.6791V13.5813C131.644 13.4836 131.644 13.3859 131.548 13.2881C131.548 13.0927 131.452 12.8972 131.452 12.7017C131.452 12.5063 131.548 12.3108 131.644 12.213C131.836 12.1153 132.028 12.0176 132.317 12.0176C132.413 12.0176 132.605 12.0176 132.701 12.1153C132.797 12.1153 132.893 12.213 132.99 12.3108C132.99 12.4085 132.99 12.5063 132.893 12.604C132.893 12.604 132.797 12.604 132.701 12.604L132.605 12.5063C132.605 12.5063 132.509 12.5063 132.509 12.4085C132.413 12.3108 132.317 12.3108 132.221 12.3108C132.124 12.3108 132.028 12.4085 132.028 12.5063C132.028 12.604 132.028 12.7017 132.028 12.7995C132.028 12.8972 132.028 12.9949 132.028 13.0927C132.124 13.1904 132.124 13.1904 132.124 13.2881C132.221 13.3859 132.221 13.4836 132.317 13.5813C132.317 13.5813 132.317 13.6791 132.413 13.6791C132.413 13.5813 132.893 13.4836 133.759 13.0927C133.951 13.0927 134.047 13.1904 133.951 13.3859ZM131.836 15.2428C132.028 15.1451 132.124 15.0474 132.124 14.7542C132.124 14.5587 132.028 14.5587 132.028 14.461C132.028 14.3632 131.932 14.3632 131.74 14.461C131.452 14.6564 131.163 14.8519 130.875 15.1451H130.779V15.2428C130.779 15.2428 130.779 15.2428 130.779 15.3406C130.779 15.3406 130.779 15.3406 130.875 15.3406C131.163 15.4383 131.548 15.3406 131.836 15.2428Z" fill="#155EEF"/>
</svg>
