<svg width="20" height="24" viewBox="0 0 20 24" fill="none" xmlns="http://www.w3.org/2000/svg">
<path d="M10 23.667C11.2834 23.667 12.3334 22.617 12.3334 21.3337H7.66669C7.66669 22.617 8.71669 23.667 10 23.667ZM17 16.667V10.8337C17 7.25199 15.0984 4.25366 11.75 3.46033V2.66699C11.75 1.69866 10.9684 0.916992 10 0.916992C9.03168 0.916992 8.25002 1.69866 8.25002 2.66699V3.46033C4.91335 4.25366 3.00002 7.24033 3.00002 10.8337V16.667L0.666687 19.0003V20.167H19.3333V19.0003L17 16.667ZM14.6667 17.8337H5.33335V10.8337C5.33335 7.94033 7.09502 5.58366 10 5.58366C12.905 5.58366 14.6667 7.94033 14.6667 10.8337V17.8337Z" fill="#2D2D2D" fill-opacity="0.7"/>
</svg>
